<?xml version="1.0" standalone="no"?>
<!DOCTYPE svg PUBLIC "-//W3C//DTD SVG 20010904//EN"
 "http://www.w3.org/TR/2001/REC-SVG-20010904/DTD/svg10.dtd">
<svg version="1.0" xmlns="http://www.w3.org/2000/svg"
 width="140.000000pt" height="140.000000pt" viewBox="0 0 140.000000 140.000000"
 preserveAspectRatio="xMidYMid meet">
<metadata>
Created by potrace 1.11, written by Peter Selinger 2001-2013
</metadata>
<g transform="translate(0.000000,140.000000) scale(0.100000,-0.100000)"
fill="#000000" stroke="none">
<path d="M593 1199 c-19 -19 -4 -46 23 -41 19 3 24 10 22 26 -3 24 -28 32 -45
15z"/>
<path d="M658 1173 c7 -3 16 -2 19 1 4 3 -2 6 -13 5 -11 0 -14 -3 -6 -6z"/>
<path d="M276 1148 c-9 -12 -13 -25 -10 -30 3 -5 1 -14 -5 -21 -7 -10 -1 -12
27 -12 44 1 62 10 62 33 -1 45 -50 64 -74 30z"/>
<path d="M876 1135 c-4 -12 -1 -16 14 -13 24 3 28 22 7 26 -8 2 -17 -4 -21
-13z"/>
<path d="M730 1080 c-19 -19 -19 -22 -4 -45 12 -19 24 -24 48 -22 27 2 31 6
31 30 0 17 -8 35 -19 43 -26 18 -32 18 -56 -6z"/>
<path d="M528 1073 c-19 -5 -24 -28 -9 -38 10 -6 24 11 27 33 1 6 2 11 1 11
-1 -1 -10 -3 -19 -6z"/>
<path d="M987 1052 c9 -15 18 -28 19 -30 0 -1 6 4 13 12 10 11 6 17 -18 29
l-30 15 16 -26z"/>
<path d="M1140 1032 c-28 -23 -20 -59 16 -68 46 -12 72 37 38 70 -20 20 -27
20 -54 -2z"/>
<path d="M444 998 l-19 -23 23 19 c21 18 27 26 19 26 -2 0 -12 -10 -23 -22z"/>
<path d="M584 991 c20 -22 26 -25 26 -13 0 4 -10 13 -22 21 -23 14 -23 14 -4
-8z"/>
<path d="M826 998 c3 -7 20 -24 37 -37 l32 -25 -34 37 c-38 40 -43 44 -35 25z"/>
<path d="M73 993 c-18 -7 -16 -40 3 -47 22 -8 22 -8 34 14 8 15 7 21 -7 28
-10 5 -24 7 -30 5z"/>
<path d="M1153 930 c-1 -11 2 -20 7 -20 4 0 7 7 6 15 -3 23 -12 26 -13 5z"/>
<path d="M1059 923 c-13 -16 -12 -17 4 -4 9 7 17 15 17 17 0 8 -8 3 -21 -13z"/>
<path d="M660 926 c0 -2 8 -10 18 -17 15 -13 16 -12 3 4 -13 16 -21 21 -21 13z"/>
<path d="M207 899 c7 -7 15 -10 18 -7 3 3 -2 9 -12 12 -14 6 -15 5 -6 -5z"/>
<path d="M243 883 c-3 -10 -13 -27 -22 -38 -15 -19 -15 -19 2 -5 16 12 20 12
28 -1 6 -10 9 -10 9 -1 0 6 6 11 13 10 7 -2 12 7 12 22 0 30 -32 40 -42 13z"/>
<path d="M703 875 c0 -17 24 -28 32 -15 4 6 3 15 0 20 -9 15 -32 12 -32 -5z"/>
<path d="M956 866 c1 -12 3 -25 3 -29 1 -5 11 -7 24 -5 14 2 23 11 25 26 2 12
0 23 -5 23 -44 7 -49 5 -47 -15z"/>
<path d="M1263 854 c-8 -22 4 -44 25 -44 10 0 24 -6 32 -12 12 -11 12 -10 3 2
-6 8 -13 26 -15 39 -3 27 -36 38 -45 15z"/>
<path d="M367 829 c7 -7 15 -10 18 -7 3 3 -2 9 -12 12 -14 6 -15 5 -6 -5z"/>
<path d="M508 819 c-27 -15 -23 -63 6 -77 20 -9 27 -7 40 7 22 24 20 58 -3 71
-23 12 -22 12 -43 -1z"/>
<path d="M1010 826 c0 -2 8 -10 18 -17 15 -13 16 -12 3 4 -13 16 -21 21 -21
13z"/>
<path d="M792 790 c7 -10 14 -18 15 -16 6 6 -9 36 -18 36 -5 0 -4 -9 3 -20z"/>
<path d="M587 764 c-4 -4 5 -16 20 -26 33 -21 49 -24 31 -4 -7 8 -16 12 -20
10 -4 -3 -11 3 -15 11 -5 9 -12 12 -16 9z"/>
<path d="M12 748 c-28 -28 -7 -70 37 -73 17 -1 29 0 27 3 -3 2 -1 15 4 28 16
40 -37 73 -68 42z"/>
<path d="M1099 749 c-11 -6 -11 -11 -2 -20 9 -9 16 -8 33 4 20 14 20 15 2 20
-11 2 -26 1 -33 -4z"/>
<path d="M1357 742 c5 -11 3 -13 -7 -7 -9 5 -11 4 -6 -3 10 -17 46 -15 46 2 0
7 -9 16 -19 19 -15 3 -18 1 -14 -11z"/>
<path d="M884 720 c-53 -21 -27 -91 30 -81 5 1 6 -7 3 -19 -3 -11 -1 -18 4
-14 5 3 9 17 9 31 0 21 4 24 23 20 21 -6 21 -5 3 8 -11 8 -17 18 -13 21 5 5
-31 47 -37 43 -1 0 -10 -4 -22 -9z"/>
<path d="M705 710 c-4 -6 -11 -7 -17 -4 -7 4 -7 0 1 -13 7 -14 7 -24 -2 -33
-10 -10 -9 -11 3 -4 8 5 23 7 33 6 22 -4 33 24 17 43 -15 17 -26 19 -35 5z"/>
<path d="M196 687 c3 -10 9 -15 12 -12 3 3 0 11 -7 18 -10 9 -11 8 -5 -6z"/>
<path d="M1346 663 c-6 -14 -5 -15 5 -6 7 7 10 15 7 18 -3 3 -9 -2 -12 -12z"/>
<path d="M327 664 c-9 -10 2 -24 19 -24 8 0 14 7 14 15 0 15 -21 21 -33 9z"/>
<path d="M1106 633 c-9 -10 -7 -43 3 -43 5 0 11 -7 13 -15 2 -9 11 0 23 23
l21 37 -27 2 c-15 1 -29 -1 -33 -4z"/>
<path d="M1315 617 c-15 -12 -17 -19 -9 -36 8 -20 11 -20 29 -8 15 12 17 19 9
36 -8 20 -11 20 -29 8z"/>
<path d="M146 553 c-8 -21 7 -36 38 -38 19 0 22 2 14 12 -6 7 -7 13 -3 13 4 0
2 7 -5 15 -16 20 -36 19 -44 -2z"/>
<path d="M470 566 c0 -2 7 -7 16 -10 8 -3 12 -2 9 4 -6 10 -25 14 -25 6z"/>
<path d="M1276 562 c-3 -5 1 -9 9 -9 8 0 12 4 9 9 -3 4 -7 8 -9 8 -2 0 -6 -4
-9 -8z"/>
<path d="M522 548 c-21 -21 -14 -57 13 -70 23 -10 29 -8 51 13 l24 25 -20 22
c-23 24 -50 28 -68 10z"/>
<path d="M952 535 c-11 -23 -10 -24 13 -15 23 9 29 6 26 -12 0 -4 5 -5 13 -2
11 4 9 11 -9 30 -28 30 -29 30 -43 -1z"/>
<path d="M727 507 c-22 -16 -13 -47 14 -47 25 0 36 28 17 46 -11 12 -17 12
-31 1z"/>
<path d="M620 506 c0 -2 7 -6 15 -10 8 -3 15 -1 15 4 0 6 -7 10 -15 10 -8 0
-15 -2 -15 -4z"/>
<path d="M1108 479 c-41 -23 -3 -98 38 -76 27 15 34 29 27 52 -10 34 -34 43
-65 24z"/>
<path d="M780 476 c0 -3 9 -10 20 -16 11 -6 20 -8 20 -6 0 3 -9 10 -20 16 -11
6 -20 8 -20 6z"/>
<path d="M343 443 c-16 -6 -5 -33 13 -33 8 0 14 6 14 14 0 18 -11 25 -27 19z"/>
<path d="M865 441 c-3 -6 4 -15 15 -21 17 -9 20 -8 20 10 0 20 -24 28 -35 11z"/>
<path d="M915 410 c3 -5 8 -10 11 -10 2 0 4 5 4 10 0 6 -5 10 -11 10 -5 0 -7
-4 -4 -10z"/>
<path d="M981 391 c-16 -11 -6 -51 14 -51 7 0 16 -8 18 -17 3 -11 5 -8 6 9 1
16 6 26 14 24 6 -1 9 -1 5 1 -5 3 -8 11 -8 18 0 7 -7 16 -16 19 -19 7 -16 8
-33 -3z"/>
<path d="M1104 334 c-4 -10 -9 -23 -12 -29 -3 -5 -2 -7 3 -3 4 4 13 1 19 -7 9
-13 11 -10 11 14 0 36 -12 50 -21 25z"/>
<path d="M955 304 c-19 -19 -12 -29 30 -38 l30 -7 -23 16 c-13 10 -21 23 -18
31 7 18 1 18 -19 -2z"/>
<path d="M1027 263 c-12 -12 -7 -41 8 -47 8 -3 25 -1 37 4 13 5 17 9 11 9 -7
1 -13 10 -13 21 0 20 -28 28 -43 13z"/>
<path d="M1123 198 c2 -7 10 -13 17 -13 7 0 15 6 18 13 2 7 -5 12 -18 12 -13
0 -20 -5 -17 -12z"/>
</g>
</svg>
